<?xml version="1.0" encoding="iso-8859-1"?>
<!-- Generator: Adobe Illustrator 19.1.0, SVG Export Plug-In . SVG Version: 6.00 Build 0)  -->
<svg version="1.1" id="Capa_1" xmlns="http://www.w3.org/2000/svg" xmlns:xlink="http://www.w3.org/1999/xlink" x="0px" y="0px"
	 viewBox="0 0 488.1 488.1" style="enable-background:new 0 0 488.1 488.1;" xml:space="preserve">
<g>
	<g>
		<g>
			<path d="M472.25,156.8l-23.7-0.1c-3.7-19.4-11.3-38.3-22.8-55.2l16.8-16.7c6.1-6,6.1-15.9,0.1-21.9l-16.9-17
				c-6-6.1-15.9-6.1-22-0.1l-16.7,16.7c-16.9-11.6-35.7-19.3-55.1-23.1l0.1-23.7c0-8.6-6.9-15.5-15.5-15.6l-24-0.1
				c-8.6,0-15.5,6.9-15.6,15.5l-0.1,23.6c-19.5,3.6-38.4,11.1-55.5,22.6l-16.5-16.5c-6-6.1-15.9-6.1-21.9-0.1l-17,16.9
				c-6.1,6-6.1,15.9-0.1,21.9l16.3,16.4c-10.7,15.5-18.2,32.7-22.3,50.5c21.6,1.2,42.7,6.1,62.6,14.5c1.1,0.5,2.2,0.9,3.3,1.4
				c3.2-14.6,10.4-28.4,21.7-39.7c31.3-31.2,82-31,113.1,0.3c31.2,31.3,31,82-0.3,113.1c-11.2,11.1-24.8,18.2-39.2,21.4
				c0.5,1.2,1.1,2.5,1.6,3.7c8.4,19.8,13.2,40.7,14.5,62.2c17.4-4.1,34.2-11.3,49.5-21.7l16.3,16.4c6,6.1,15.9,6.1,22,0.1l17-16.9
				c6.1-6,6.1-15.9,0.1-22l-16.4-16.5c11.6-17,19.2-35.9,22.9-55.4l23.5,0.1c8.6,0,15.5-6.9,15.6-15.5l0.1-24
				C487.75,163.8,480.85,156.8,472.25,156.8z"/>
		</g>
		<g>
			<g>
				<path d="M149.05,190.7c-82.1,0-148.7,66.6-148.7,148.7c0,82.1,66.6,148.7,148.7,148.7s148.7-66.6,148.7-148.7
					S231.15,190.7,149.05,190.7z M191.75,398c-6.5,7.9-14.9,13.2-24.8,15.9c-4.3,1.2-6.2,3.4-6,7.9c0.2,4.4,0,8.8,0,13.2
					c0,3.9-2,6-5.9,6.1c-2.5,0.1-5,0.1-7.5,0.1c-2.2,0-4.4,0-6.6-0.1c-4.1-0.1-6.1-2.4-6.1-6.5c0-3.2-0.1-6.4-0.1-9.6
					c-0.1-7.1-0.3-7.4-7.1-8.4c-8.7-1.4-17.3-3.4-25.2-7.2c-6.3-3-6.9-4.6-5.1-11.2c1.3-4.9,2.7-9.8,4.2-14.6c1.1-3.6,2.1-5.1,4-5.1
					c1.1,0,2.5,0.5,4.4,1.5c8.8,4.6,18.2,7.2,28,8.4c1.7,0.2,3.3,0.3,5,0.3c4.6,0,9.1-0.8,13.4-2.7c10.9-4.8,12.6-17.5,3.4-25.1
					c-3.1-2.6-6.7-4.5-10.4-6.1c-9.6-4.2-19.6-7.4-28.6-12.9c-14.7-8.8-24-20.9-22.9-38.7c1.2-20.2,12.7-32.8,31.2-39.5
					c7.6-2.8,7.7-2.7,7.7-10.7c0-2.7,0-5.4,0-8.1c0.2-6,1.2-7.1,7.2-7.2c0.7,0,1.4,0,2.1,0c1.2,0,2.3,0,3.5,0c0.5,0,0.9,0,1.4,0
					c11.4,0,11.4,0.5,11.4,12.8c0,9,0,9.1,9,10.5c6.9,1.1,13.5,3.1,19.8,5.9c3.5,1.5,4.8,4,3.8,7.7c-1.6,5.5-3.1,11.1-4.9,16.5
					c-1.1,3.3-2.1,4.8-4.1,4.8c-1.1,0-2.4-0.5-4.2-1.3c-8.8-4.3-18-6.3-27.7-6.3c-1.2,0-2.5,0-3.8,0.1c-2.9,0.2-5.7,0.5-8.4,1.7
					c-9.5,4.2-11.1,14.7-3,21.2c4.1,3.3,8.8,5.7,13.7,7.7c8.4,3.5,16.9,6.8,24.9,11.3C202.85,344.2,209.75,376.2,191.75,398z"/>
			</g>
		</g>
	</g>
</g>
<g>
</g>
<g>
</g>
<g>
</g>
<g>
</g>
<g>
</g>
<g>
</g>
<g>
</g>
<g>
</g>
<g>
</g>
<g>
</g>
<g>
</g>
<g>
</g>
<g>
</g>
<g>
</g>
<g>
</g>
</svg>
