<?xml version="1.0" encoding="iso-8859-1"?>
<!-- Generator: Adobe Illustrator 19.0.0, SVG Export Plug-In . SVG Version: 6.00 Build 0)  -->
<svg version="1.1" id="Layer_1" xmlns="http://www.w3.org/2000/svg" xmlns:xlink="http://www.w3.org/1999/xlink" x="0px" y="0px"
	 viewBox="0 0 512 512" style="enable-background:new 0 0 512 512;" xml:space="preserve">
<g>
	<g>
		<rect x="272.879" y="85.521" width="92.846" height="46.508"/>
	</g>
</g>
<g>
	<g>
		<rect x="146.274" y="246.064" width="219.44" height="46.508"/>
	</g>
</g>
<g>
	<g>
		<rect x="146.274" y="165.787" width="219.44" height="46.508"/>
	</g>
</g>
<g>
	<g>
		<rect x="146.274" y="85.521" width="92.846" height="46.508"/>
	</g>
</g>
<g>
	<g>
		<path d="M446.829,0H65.17c-9.322,0-16.879,7.557-16.879,16.879v478.242c0,9.322,7.557,16.879,16.879,16.879H446.83
			c9.322,0,16.879-7.557,16.879-16.879V16.879C463.708,7.557,456.152,0,446.829,0z M112.519,68.642
			c0-9.322,7.557-16.879,16.879-16.879h253.204c9.322,0,16.879,7.557,16.879,16.879v240.809c0,9.322-7.557,16.879-16.879,16.879
			H129.398c-9.322,0-16.879-7.557-16.879-16.879V68.642z M248.655,448.985H126.181c-9.322,0-16.879-7.557-16.879-16.879
			s7.557-16.879,16.879-16.879h122.474c9.322,0,16.879,7.557,16.879,16.879S257.977,448.985,248.655,448.985z M423.61,413.93
			l-60.222,60.222c-4.841,4.842-12.108,6.263-18.395,3.659c-6.307-2.613-10.42-8.767-10.42-15.594v-60.222
			c0-9.322,7.557-16.879,16.879-16.879h60.222c6.827,0,12.981,4.112,15.594,10.42C429.881,401.842,428.438,409.103,423.61,413.93z"
			/>
	</g>
</g>
<g>
</g>
<g>
</g>
<g>
</g>
<g>
</g>
<g>
</g>
<g>
</g>
<g>
</g>
<g>
</g>
<g>
</g>
<g>
</g>
<g>
</g>
<g>
</g>
<g>
</g>
<g>
</g>
<g>
</g>
</svg>
